<svg xmlns="http://www.w3.org/2000/svg" viewBox="0 0 512 512" role="img" aria-label="Étude — Piano">
  <!-- Full-bleed background — system will crop to its own shape -->
  <rect width="512" height="512" fill="#0c0907"/>
  <ellipse cx="200" cy="160" rx="260" ry="200" fill="#d4a049" opacity="0.10"/>

  <!-- Content centered within ~80% safe area -->
  <g transform="translate(140 322)">
    <rect x="0"   y="0" width="78" height="144" rx="6" fill="#f1e6d0"/>
    <rect x="86"  y="0" width="78" height="144" rx="6" fill="#f1e6d0"/>
    <rect x="172" y="0" width="78" height="144" rx="6" fill="#f1e6d0"/>
    <rect x="0"   y="130" width="78" height="14" rx="3" fill="#0a0805" opacity="0.18"/>
    <rect x="86"  y="130" width="78" height="14" rx="3" fill="#0a0805" opacity="0.18"/>
    <rect x="172" y="130" width="78" height="14" rx="3" fill="#0a0805" opacity="0.18"/>
    <rect x="54"  y="0" width="46" height="92" rx="5" fill="#0a0805"/>
    <rect x="140" y="0" width="46" height="92" rx="5" fill="#0a0805"/>
    <rect x="54"  y="0" width="46" height="3" rx="1.5" fill="#d4a049" opacity="0.65"/>
    <rect x="140" y="0" width="46" height="3" rx="1.5" fill="#d4a049" opacity="0.65"/>
  </g>

  <text x="256" y="304"
        font-family="Georgia, 'Times New Roman', serif"
        font-style="italic"
        font-weight="500"
        font-size="250"
        text-anchor="middle"
        fill="#e8b760">É</text>
  <text x="253" y="301"
        font-family="Georgia, 'Times New Roman', serif"
        font-style="italic"
        font-weight="500"
        font-size="250"
        text-anchor="middle"
        fill="#f0c578"
        opacity="0.55">É</text>
</svg>
